<?xml version="1.0" standalone="no"?>
<!DOCTYPE svg PUBLIC "-//W3C//DTD SVG 20010904//EN"
 "http://www.w3.org/TR/2001/REC-SVG-20010904/DTD/svg10.dtd">
<svg version="1.0" xmlns="http://www.w3.org/2000/svg"
 width="512.000000pt" height="512.000000pt" viewBox="0 0 512.000000 512.000000"
 preserveAspectRatio="xMidYMid meet">
<metadata>
Created by potrace 1.14, written by Peter Selinger 2001-2017
</metadata>
<g transform="translate(0.000000,512.000000) scale(0.100000,-0.100000)"
fill="#000000" stroke="none">
<path d="M745 5105 c-327 -60 -591 -286 -695 -596 -12 -35 -24 -73 -26 -84 -2
-11 -7 -31 -10 -45 -3 -14 -7 -77 -9 -140 -7 -258 84 -480 273 -666 41 -41 78
-74 83 -74 4 0 14 -7 22 -15 39 -38 230 -126 309 -141 118 -23 237 -28 329
-14 132 19 280 75 365 137 l30 23 72 -73 c81 -81 94 -99 157 -212 73 -132 134
-321 152 -470 13 -115 8 -314 -13 -430 -19 -109 -69 -255 -124 -361 -63 -122
-87 -155 -170 -240 l-70 -73 -53 35 c-125 83 -278 126 -447 128 -139 1 -193
-6 -293 -39 -274 -89 -487 -298 -577 -566 -44 -129 -59 -314 -36 -444 61 -349
334 -638 683 -721 41 -10 115 -17 188 -18 145 -1 192 6 304 44 309 104 539
372 595 692 14 81 15 259 1 323 -12 59 -38 140 -47 153 -6 6 -8 12 -4 12 7 0
-40 94 -77 153 l-23 38 65 66 c197 198 539 322 871 318 98 -2 228 -13 241 -21
3 -2 21 -6 40 -9 119 -20 358 -119 454 -187 22 -16 73 -61 112 -100 64 -63 71
-73 59 -87 -25 -29 -92 -165 -111 -226 -49 -159 -55 -348 -16 -497 56 -214
190 -402 374 -525 68 -46 202 -109 249 -118 11 -2 27 -6 36 -9 70 -21 271 -30
347 -15 28 5 63 12 78 14 15 3 56 16 90 29 291 109 500 344 574 643 25 102 22
324 -5 425 -82 302 -299 533 -595 633 -97 32 -157 40 -297 39 -168 -1 -330
-49 -455 -133 l-44 -30 -66 67 c-165 165 -275 412 -311 697 -10 74 -10 251 -1
325 34 284 151 547 313 703 l68 65 41 -28 c69 -47 193 -101 261 -114 157 -29
306 -32 392 -7 17 5 32 8 32 6 0 -8 143 46 200 75 221 111 396 331 461 578 22
81 31 274 17 362 -38 246 -182 467 -394 609 -65 44 -200 107 -246 116 -11 2
-27 6 -36 9 -68 21 -273 30 -347 15 -27 -5 -63 -12 -78 -14 -15 -3 -56 -16
-90 -29 -288 -108 -489 -331 -568 -627 -32 -118 -32 -318 -1 -436 21 -82 69
-194 115 -267 l24 -39 -72 -69 c-104 -100 -200 -160 -355 -221 -58 -23 -185
-59 -251 -72 -128 -25 -372 -25 -494 -1 -162 33 -326 94 -450 169 -47 29 -119
85 -160 125 l-75 74 31 45 c44 64 87 163 111 257 22 85 30 266 16 356 -57 373
-360 681 -733 746 -66 12 -244 11 -310 -1z m303 -306 c109 -28 186 -73 273
-159 164 -164 217 -387 145 -605 -44 -134 -31 -137 -204 37 -141 142 -150 153
-132 165 11 8 32 34 46 59 22 38 25 51 19 91 -9 59 -25 84 -74 111 -46 26 -90
28 -134 6 -18 -9 -105 -89 -194 -178 -162 -160 -193 -203 -193 -262 0 -37 37
-98 71 -118 67 -39 127 -32 187 22 l42 38 150 -150 150 -149 -28 -17 c-98 -59
-263 -83 -392 -56 -232 49 -417 233 -466 466 -42 201 26 414 178 555 156 144
353 195 556 144z m3294 6 c225 -46 411 -230 463 -455 19 -86 13 -225 -14 -310
-81 -256 -339 -435 -601 -417 -75 6 -220 46 -252 70 -15 12 -2 29 129 160 80
81 148 147 151 147 3 0 24 -16 48 -36 106 -86 244 -29 252 105 4 54 -35 105
-212 278 -153 150 -168 162 -211 168 -45 7 -98 -6 -120 -30 -37 -40 -46 -58
-51 -99 -5 -37 -1 -54 19 -89 14 -24 33 -49 41 -57 9 -7 16 -16 16 -19 0 -8
-292 -303 -295 -299 -52 83 -77 168 -81 280 -7 170 50 311 176 439 145 147
340 206 542 164z m-3277 -3331 c33 -10 77 -28 97 -40 l38 -20 -146 -147 c-81
-81 -149 -147 -153 -147 -3 0 -18 11 -32 24 -86 79 -202 69 -249 -24 -46 -91
-26 -128 183 -336 184 -182 202 -193 280 -179 40 8 89 50 106 92 22 54 0 135
-48 175 -12 10 -21 22 -21 26 0 5 66 75 147 157 l148 147 29 -62 c40 -86 56
-169 51 -270 -13 -329 -303 -589 -631 -566 -160 11 -293 74 -399 188 -142 153
-196 357 -146 551 29 113 74 190 161 278 124 124 265 180 440 174 47 -1 112
-11 145 -21z m3303 5 c108 -27 186 -73 273 -159 125 -125 182 -268 175 -445
-6 -154 -56 -271 -165 -387 -229 -245 -609 -249 -851 -9 -173 171 -223 405
-136 639 34 95 26 97 184 -61 78 -78 145 -145 149 -150 3 -4 -3 -17 -14 -30
-63 -69 -76 -131 -43 -197 23 -45 80 -79 135 -80 49 0 91 33 267 210 159 160
167 170 174 216 22 147 -151 229 -259 122 -16 -15 -32 -28 -36 -28 -11 0 -296
288 -294 297 3 11 133 63 181 71 79 14 183 11 260 -9z"/>
</g>
</svg>
