<?xml version="1.0" encoding="utf-8" standalone="no"?>
<!DOCTYPE svg PUBLIC "-//W3C//DTD SVG 1.1//EN"
  "http://www.w3.org/Graphics/SVG/1.1/DTD/svg11.dtd">
<!-- Created with matplotlib (https://matplotlib.org/) -->
<svg height="597.6pt" version="1.1" viewBox="0 0 688.32 597.6" width="688.32pt" xmlns="http://www.w3.org/2000/svg" xmlns:xlink="http://www.w3.org/1999/xlink">
 <metadata>
  <rdf:RDF xmlns:cc="http://creativecommons.org/ns#" xmlns:dc="http://purl.org/dc/elements/1.1/" xmlns:rdf="http://www.w3.org/1999/02/22-rdf-syntax-ns#">
   <cc:Work>
    <dc:type rdf:resource="http://purl.org/dc/dcmitype/StillImage"/>
    <dc:date>2023-04-13T15:23:36.417994</dc:date>
    <dc:format>image/svg+xml</dc:format>
    <dc:creator>
     <cc:Agent>
      <dc:title>Matplotlib v3.3.4, https://matplotlib.org/</dc:title>
     </cc:Agent>
    </dc:creator>
   </cc:Work>
  </rdf:RDF>
 </metadata>
 <defs>
  <style type="text/css">*{stroke-linecap:butt;stroke-linejoin:round;}</style>
 </defs>
 <g id="figure_1">
  <g id="patch_1">
   <path d="M 0 597.6 
L 688.32 597.6 
L 688.32 0 
L 0 0 
z
" style="fill:#ffffff;"/>
  </g>
  <g id="axes_1">
   <g id="patch_2">
    <path d="M 86.04 531.864 
L 619.488 531.864 
L 619.488 71.712 
L 86.04 71.712 
z
" style="fill:#ffffff;"/>
   </g>
   <g id="PathCollection_1">
    <defs>
     <path d="M 0 3 
C 0.795609 3 1.55874 2.683901 2.12132 2.12132 
C 2.683901 1.55874 3 0.795609 3 0 
C 3 -0.795609 2.683901 -1.55874 2.12132 -2.12132 
C 1.55874 -2.683901 0.795609 -3 0 -3 
C -0.795609 -3 -1.55874 -2.683901 -2.12132 -2.12132 
C -2.683901 -1.55874 -3 -0.795609 -3 0 
C -3 0.795609 -2.683901 1.55874 -2.12132 2.12132 
C -1.55874 2.683901 -0.795609 3 0 3 
z
" id="m2892cd9dd9" style="stroke:#ff0000;"/>
    </defs>
    <g clip-path="url(#p0b9730a3e1)">
     <use style="fill:#ff0000;stroke:#ff0000;" x="110.287636" xlink:href="#m2892cd9dd9" y="92.628"/>
     <use style="fill:#ff0000;stroke:#ff0000;" x="150.700364" xlink:href="#m2892cd9dd9" y="131.904437"/>
     <use style="fill:#ff0000;stroke:#ff0000;" x="191.113091" xlink:href="#m2892cd9dd9" y="193.129647"/>
     <use style="fill:#ff0000;stroke:#ff0000;" x="231.525818" xlink:href="#m2892cd9dd9" y="279.743216"/>
     <use style="fill:#ff0000;stroke:#ff0000;" x="271.938545" xlink:href="#m2892cd9dd9" y="359.932912"/>
     <use style="fill:#ff0000;stroke:#ff0000;" x="312.351273" xlink:href="#m2892cd9dd9" y="430.494241"/>
     <use style="fill:#ff0000;stroke:#ff0000;" x="352.764" xlink:href="#m2892cd9dd9" y="454.071448"/>
     <use style="fill:#ff0000;stroke:#ff0000;" x="393.176727" xlink:href="#m2892cd9dd9" y="470.543965"/>
     <use style="fill:#ff0000;stroke:#ff0000;" x="433.589455" xlink:href="#m2892cd9dd9" y="485.723871"/>
     <use style="fill:#ff0000;stroke:#ff0000;" x="474.002182" xlink:href="#m2892cd9dd9" y="495.651672"/>
     <use style="fill:#ff0000;stroke:#ff0000;" x="514.414909" xlink:href="#m2892cd9dd9" y="503.502898"/>
     <use style="fill:#ff0000;stroke:#ff0000;" x="554.827636" xlink:href="#m2892cd9dd9" y="507.300744"/>
     <use style="fill:#ff0000;stroke:#ff0000;" x="595.240364" xlink:href="#m2892cd9dd9" y="508.881061"/>
    </g>
   </g>
   <g id="matplotlib.axis_1">
    <g id="xtick_1">
     <g id="line2d_1">
      <path clip-path="url(#p0b9730a3e1)" d="M 110.287636 531.864 
L 110.287636 71.712 
" style="fill:none;stroke:#b0b0b0;stroke-linecap:square;stroke-width:0.8;"/>
     </g>
     <g id="line2d_2">
      <defs>
       <path d="M 0 0 
L 0 3.5 
" id="mb8decb25c1" style="stroke:#000000;stroke-width:0.8;"/>
      </defs>
      <g>
       <use style="stroke:#000000;stroke-width:0.8;" x="110.287636" xlink:href="#mb8decb25c1" y="531.864"/>
      </g>
     </g>
     <g id="text_1">
      <!-- 0 -->
      <g transform="translate(107.106386 546.462438)scale(0.1 -0.1)">
       <defs>
        <path d="M 31.78125 66.40625 
Q 24.171875 66.40625 20.328125 58.90625 
Q 16.5 51.421875 16.5 36.375 
Q 16.5 21.390625 20.328125 13.890625 
Q 24.171875 6.390625 31.78125 6.390625 
Q 39.453125 6.390625 43.28125 13.890625 
Q 47.125 21.390625 47.125 36.375 
Q 47.125 51.421875 43.28125 58.90625 
Q 39.453125 66.40625 31.78125 66.40625 
z
M 31.78125 74.21875 
Q 44.046875 74.21875 50.515625 64.515625 
Q 56.984375 54.828125 56.984375 36.375 
Q 56.984375 17.96875 50.515625 8.265625 
Q 44.046875 -1.421875 31.78125 -1.421875 
Q 19.53125 -1.421875 13.0625 8.265625 
Q 6.59375 17.96875 6.59375 36.375 
Q 6.59375 54.828125 13.0625 64.515625 
Q 19.53125 74.21875 31.78125 74.21875 
z
" id="DejaVuSans-48"/>
       </defs>
       <use xlink:href="#DejaVuSans-48"/>
      </g>
     </g>
    </g>
    <g id="xtick_2">
     <g id="line2d_3">
      <path clip-path="url(#p0b9730a3e1)" d="M 191.113091 531.864 
L 191.113091 71.712 
" style="fill:none;stroke:#b0b0b0;stroke-linecap:square;stroke-width:0.8;"/>
     </g>
     <g id="line2d_4">
      <g>
       <use style="stroke:#000000;stroke-width:0.8;" x="191.113091" xlink:href="#mb8decb25c1" y="531.864"/>
      </g>
     </g>
     <g id="text_2">
      <!-- 10 -->
      <g transform="translate(184.750591 546.462438)scale(0.1 -0.1)">
       <defs>
        <path d="M 12.40625 8.296875 
L 28.515625 8.296875 
L 28.515625 63.921875 
L 10.984375 60.40625 
L 10.984375 69.390625 
L 28.421875 72.90625 
L 38.28125 72.90625 
L 38.28125 8.296875 
L 54.390625 8.296875 
L 54.390625 0 
L 12.40625 0 
z
" id="DejaVuSans-49"/>
       </defs>
       <use xlink:href="#DejaVuSans-49"/>
       <use x="63.623047" xlink:href="#DejaVuSans-48"/>
      </g>
     </g>
    </g>
    <g id="xtick_3">
     <g id="line2d_5">
      <path clip-path="url(#p0b9730a3e1)" d="M 271.938545 531.864 
L 271.938545 71.712 
" style="fill:none;stroke:#b0b0b0;stroke-linecap:square;stroke-width:0.8;"/>
     </g>
     <g id="line2d_6">
      <g>
       <use style="stroke:#000000;stroke-width:0.8;" x="271.938545" xlink:href="#mb8decb25c1" y="531.864"/>
      </g>
     </g>
     <g id="text_3">
      <!-- 20 -->
      <g transform="translate(265.576045 546.462438)scale(0.1 -0.1)">
       <defs>
        <path d="M 19.1875 8.296875 
L 53.609375 8.296875 
L 53.609375 0 
L 7.328125 0 
L 7.328125 8.296875 
Q 12.9375 14.109375 22.625 23.890625 
Q 32.328125 33.6875 34.8125 36.53125 
Q 39.546875 41.84375 41.421875 45.53125 
Q 43.3125 49.21875 43.3125 52.78125 
Q 43.3125 58.59375 39.234375 62.25 
Q 35.15625 65.921875 28.609375 65.921875 
Q 23.96875 65.921875 18.8125 64.3125 
Q 13.671875 62.703125 7.8125 59.421875 
L 7.8125 69.390625 
Q 13.765625 71.78125 18.9375 73 
Q 24.125 74.21875 28.421875 74.21875 
Q 39.75 74.21875 46.484375 68.546875 
Q 53.21875 62.890625 53.21875 53.421875 
Q 53.21875 48.921875 51.53125 44.890625 
Q 49.859375 40.875 45.40625 35.40625 
Q 44.1875 33.984375 37.640625 27.21875 
Q 31.109375 20.453125 19.1875 8.296875 
z
" id="DejaVuSans-50"/>
       </defs>
       <use xlink:href="#DejaVuSans-50"/>
       <use x="63.623047" xlink:href="#DejaVuSans-48"/>
      </g>
     </g>
    </g>
    <g id="xtick_4">
     <g id="line2d_7">
      <path clip-path="url(#p0b9730a3e1)" d="M 352.764 531.864 
L 352.764 71.712 
" style="fill:none;stroke:#b0b0b0;stroke-linecap:square;stroke-width:0.8;"/>
     </g>
     <g id="line2d_8">
      <g>
       <use style="stroke:#000000;stroke-width:0.8;" x="352.764" xlink:href="#mb8decb25c1" y="531.864"/>
      </g>
     </g>
     <g id="text_4">
      <!-- 30 -->
      <g transform="translate(346.4015 546.462438)scale(0.1 -0.1)">
       <defs>
        <path d="M 40.578125 39.3125 
Q 47.65625 37.796875 51.625 33 
Q 55.609375 28.21875 55.609375 21.1875 
Q 55.609375 10.40625 48.1875 4.484375 
Q 40.765625 -1.421875 27.09375 -1.421875 
Q 22.515625 -1.421875 17.65625 -0.515625 
Q 12.796875 0.390625 7.625 2.203125 
L 7.625 11.71875 
Q 11.71875 9.328125 16.59375 8.109375 
Q 21.484375 6.890625 26.8125 6.890625 
Q 36.078125 6.890625 40.9375 10.546875 
Q 45.796875 14.203125 45.796875 21.1875 
Q 45.796875 27.640625 41.28125 31.265625 
Q 36.765625 34.90625 28.71875 34.90625 
L 20.21875 34.90625 
L 20.21875 43.015625 
L 29.109375 43.015625 
Q 36.375 43.015625 40.234375 45.921875 
Q 44.09375 48.828125 44.09375 54.296875 
Q 44.09375 59.90625 40.109375 62.90625 
Q 36.140625 65.921875 28.71875 65.921875 
Q 24.65625 65.921875 20.015625 65.03125 
Q 15.375 64.15625 9.8125 62.3125 
L 9.8125 71.09375 
Q 15.4375 72.65625 20.34375 73.4375 
Q 25.25 74.21875 29.59375 74.21875 
Q 40.828125 74.21875 47.359375 69.109375 
Q 53.90625 64.015625 53.90625 55.328125 
Q 53.90625 49.265625 50.4375 45.09375 
Q 46.96875 40.921875 40.578125 39.3125 
z
" id="DejaVuSans-51"/>
       </defs>
       <use xlink:href="#DejaVuSans-51"/>
       <use x="63.623047" xlink:href="#DejaVuSans-48"/>
      </g>
     </g>
    </g>
    <g id="xtick_5">
     <g id="line2d_9">
      <path clip-path="url(#p0b9730a3e1)" d="M 433.589455 531.864 
L 433.589455 71.712 
" style="fill:none;stroke:#b0b0b0;stroke-linecap:square;stroke-width:0.8;"/>
     </g>
     <g id="line2d_10">
      <g>
       <use style="stroke:#000000;stroke-width:0.8;" x="433.589455" xlink:href="#mb8decb25c1" y="531.864"/>
      </g>
     </g>
     <g id="text_5">
      <!-- 40 -->
      <g transform="translate(427.226955 546.462438)scale(0.1 -0.1)">
       <defs>
        <path d="M 37.796875 64.3125 
L 12.890625 25.390625 
L 37.796875 25.390625 
z
M 35.203125 72.90625 
L 47.609375 72.90625 
L 47.609375 25.390625 
L 58.015625 25.390625 
L 58.015625 17.1875 
L 47.609375 17.1875 
L 47.609375 0 
L 37.796875 0 
L 37.796875 17.1875 
L 4.890625 17.1875 
L 4.890625 26.703125 
z
" id="DejaVuSans-52"/>
       </defs>
       <use xlink:href="#DejaVuSans-52"/>
       <use x="63.623047" xlink:href="#DejaVuSans-48"/>
      </g>
     </g>
    </g>
    <g id="xtick_6">
     <g id="line2d_11">
      <path clip-path="url(#p0b9730a3e1)" d="M 514.414909 531.864 
L 514.414909 71.712 
" style="fill:none;stroke:#b0b0b0;stroke-linecap:square;stroke-width:0.8;"/>
     </g>
     <g id="line2d_12">
      <g>
       <use style="stroke:#000000;stroke-width:0.8;" x="514.414909" xlink:href="#mb8decb25c1" y="531.864"/>
      </g>
     </g>
     <g id="text_6">
      <!-- 50 -->
      <g transform="translate(508.052409 546.462438)scale(0.1 -0.1)">
       <defs>
        <path d="M 10.796875 72.90625 
L 49.515625 72.90625 
L 49.515625 64.59375 
L 19.828125 64.59375 
L 19.828125 46.734375 
Q 21.96875 47.46875 24.109375 47.828125 
Q 26.265625 48.1875 28.421875 48.1875 
Q 40.625 48.1875 47.75 41.5 
Q 54.890625 34.8125 54.890625 23.390625 
Q 54.890625 11.625 47.5625 5.09375 
Q 40.234375 -1.421875 26.90625 -1.421875 
Q 22.3125 -1.421875 17.546875 -0.640625 
Q 12.796875 0.140625 7.71875 1.703125 
L 7.71875 11.625 
Q 12.109375 9.234375 16.796875 8.0625 
Q 21.484375 6.890625 26.703125 6.890625 
Q 35.15625 6.890625 40.078125 11.328125 
Q 45.015625 15.765625 45.015625 23.390625 
Q 45.015625 31 40.078125 35.4375 
Q 35.15625 39.890625 26.703125 39.890625 
Q 22.75 39.890625 18.8125 39.015625 
Q 14.890625 38.140625 10.796875 36.28125 
z
" id="DejaVuSans-53"/>
       </defs>
       <use xlink:href="#DejaVuSans-53"/>
       <use x="63.623047" xlink:href="#DejaVuSans-48"/>
      </g>
     </g>
    </g>
    <g id="xtick_7">
     <g id="line2d_13">
      <path clip-path="url(#p0b9730a3e1)" d="M 595.240364 531.864 
L 595.240364 71.712 
" style="fill:none;stroke:#b0b0b0;stroke-linecap:square;stroke-width:0.8;"/>
     </g>
     <g id="line2d_14">
      <g>
       <use style="stroke:#000000;stroke-width:0.8;" x="595.240364" xlink:href="#mb8decb25c1" y="531.864"/>
      </g>
     </g>
     <g id="text_7">
      <!-- 60 -->
      <g transform="translate(588.877864 546.462438)scale(0.1 -0.1)">
       <defs>
        <path d="M 33.015625 40.375 
Q 26.375 40.375 22.484375 35.828125 
Q 18.609375 31.296875 18.609375 23.390625 
Q 18.609375 15.53125 22.484375 10.953125 
Q 26.375 6.390625 33.015625 6.390625 
Q 39.65625 6.390625 43.53125 10.953125 
Q 47.40625 15.53125 47.40625 23.390625 
Q 47.40625 31.296875 43.53125 35.828125 
Q 39.65625 40.375 33.015625 40.375 
z
M 52.59375 71.296875 
L 52.59375 62.3125 
Q 48.875 64.0625 45.09375 64.984375 
Q 41.3125 65.921875 37.59375 65.921875 
Q 27.828125 65.921875 22.671875 59.328125 
Q 17.53125 52.734375 16.796875 39.40625 
Q 19.671875 43.65625 24.015625 45.921875 
Q 28.375 48.1875 33.59375 48.1875 
Q 44.578125 48.1875 50.953125 41.515625 
Q 57.328125 34.859375 57.328125 23.390625 
Q 57.328125 12.15625 50.6875 5.359375 
Q 44.046875 -1.421875 33.015625 -1.421875 
Q 20.359375 -1.421875 13.671875 8.265625 
Q 6.984375 17.96875 6.984375 36.375 
Q 6.984375 53.65625 15.1875 63.9375 
Q 23.390625 74.21875 37.203125 74.21875 
Q 40.921875 74.21875 44.703125 73.484375 
Q 48.484375 72.75 52.59375 71.296875 
z
" id="DejaVuSans-54"/>
       </defs>
       <use xlink:href="#DejaVuSans-54"/>
       <use x="63.623047" xlink:href="#DejaVuSans-48"/>
      </g>
     </g>
    </g>
    <g id="text_8">
     <!-- Volume of injected air (ml) -->
     <g transform="translate(253.125328 563.939781)scale(0.15 -0.15)">
      <defs>
       <path d="M 28.609375 0 
L 0.78125 72.90625 
L 11.078125 72.90625 
L 34.1875 11.53125 
L 57.328125 72.90625 
L 67.578125 72.90625 
L 39.796875 0 
z
" id="DejaVuSans-86"/>
       <path d="M 30.609375 48.390625 
Q 23.390625 48.390625 19.1875 42.75 
Q 14.984375 37.109375 14.984375 27.296875 
Q 14.984375 17.484375 19.15625 11.84375 
Q 23.34375 6.203125 30.609375 6.203125 
Q 37.796875 6.203125 41.984375 11.859375 
Q 46.1875 17.53125 46.1875 27.296875 
Q 46.1875 37.015625 41.984375 42.703125 
Q 37.796875 48.390625 30.609375 48.390625 
z
M 30.609375 56 
Q 42.328125 56 49.015625 48.375 
Q 55.71875 40.765625 55.71875 27.296875 
Q 55.71875 13.875 49.015625 6.21875 
Q 42.328125 -1.421875 30.609375 -1.421875 
Q 18.84375 -1.421875 12.171875 6.21875 
Q 5.515625 13.875 5.515625 27.296875 
Q 5.515625 40.765625 12.171875 48.375 
Q 18.84375 56 30.609375 56 
z
" id="DejaVuSans-111"/>
       <path d="M 9.421875 75.984375 
L 18.40625 75.984375 
L 18.40625 0 
L 9.421875 0 
z
" id="DejaVuSans-108"/>
       <path d="M 8.5 21.578125 
L 8.5 54.6875 
L 17.484375 54.6875 
L 17.484375 21.921875 
Q 17.484375 14.15625 20.5 10.265625 
Q 23.53125 6.390625 29.59375 6.390625 
Q 36.859375 6.390625 41.078125 11.03125 
Q 45.3125 15.671875 45.3125 23.6875 
L 45.3125 54.6875 
L 54.296875 54.6875 
L 54.296875 0 
L 45.3125 0 
L 45.3125 8.40625 
Q 42.046875 3.421875 37.71875 1 
Q 33.40625 -1.421875 27.6875 -1.421875 
Q 18.265625 -1.421875 13.375 4.4375 
Q 8.5 10.296875 8.5 21.578125 
z
M 31.109375 56 
z
" id="DejaVuSans-117"/>
       <path d="M 52 44.1875 
Q 55.375 50.25 60.0625 53.125 
Q 64.75 56 71.09375 56 
Q 79.640625 56 84.28125 50.015625 
Q 88.921875 44.046875 88.921875 33.015625 
L 88.921875 0 
L 79.890625 0 
L 79.890625 32.71875 
Q 79.890625 40.578125 77.09375 44.375 
Q 74.3125 48.1875 68.609375 48.1875 
Q 61.625 48.1875 57.5625 43.546875 
Q 53.515625 38.921875 53.515625 30.90625 
L 53.515625 0 
L 44.484375 0 
L 44.484375 32.71875 
Q 44.484375 40.625 41.703125 44.40625 
Q 38.921875 48.1875 33.109375 48.1875 
Q 26.21875 48.1875 22.15625 43.53125 
Q 18.109375 38.875 18.109375 30.90625 
L 18.109375 0 
L 9.078125 0 
L 9.078125 54.6875 
L 18.109375 54.6875 
L 18.109375 46.1875 
Q 21.1875 51.21875 25.484375 53.609375 
Q 29.78125 56 35.6875 56 
Q 41.65625 56 45.828125 52.96875 
Q 50 49.953125 52 44.1875 
z
" id="DejaVuSans-109"/>
       <path d="M 56.203125 29.59375 
L 56.203125 25.203125 
L 14.890625 25.203125 
Q 15.484375 15.921875 20.484375 11.0625 
Q 25.484375 6.203125 34.421875 6.203125 
Q 39.59375 6.203125 44.453125 7.46875 
Q 49.3125 8.734375 54.109375 11.28125 
L 54.109375 2.78125 
Q 49.265625 0.734375 44.1875 -0.34375 
Q 39.109375 -1.421875 33.890625 -1.421875 
Q 20.796875 -1.421875 13.15625 6.1875 
Q 5.515625 13.8125 5.515625 26.8125 
Q 5.515625 40.234375 12.765625 48.109375 
Q 20.015625 56 32.328125 56 
Q 43.359375 56 49.78125 48.890625 
Q 56.203125 41.796875 56.203125 29.59375 
z
M 47.21875 32.234375 
Q 47.125 39.59375 43.09375 43.984375 
Q 39.0625 48.390625 32.421875 48.390625 
Q 24.90625 48.390625 20.390625 44.140625 
Q 15.875 39.890625 15.1875 32.171875 
z
" id="DejaVuSans-101"/>
       <path id="DejaVuSans-32"/>
       <path d="M 37.109375 75.984375 
L 37.109375 68.5 
L 28.515625 68.5 
Q 23.6875 68.5 21.796875 66.546875 
Q 19.921875 64.59375 19.921875 59.515625 
L 19.921875 54.6875 
L 34.71875 54.6875 
L 34.71875 47.703125 
L 19.921875 47.703125 
L 19.921875 0 
L 10.890625 0 
L 10.890625 47.703125 
L 2.296875 47.703125 
L 2.296875 54.6875 
L 10.890625 54.6875 
L 10.890625 58.5 
Q 10.890625 67.625 15.140625 71.796875 
Q 19.390625 75.984375 28.609375 75.984375 
z
" id="DejaVuSans-102"/>
       <path d="M 9.421875 54.6875 
L 18.40625 54.6875 
L 18.40625 0 
L 9.421875 0 
z
M 9.421875 75.984375 
L 18.40625 75.984375 
L 18.40625 64.59375 
L 9.421875 64.59375 
z
" id="DejaVuSans-105"/>
       <path d="M 54.890625 33.015625 
L 54.890625 0 
L 45.90625 0 
L 45.90625 32.71875 
Q 45.90625 40.484375 42.875 44.328125 
Q 39.84375 48.1875 33.796875 48.1875 
Q 26.515625 48.1875 22.3125 43.546875 
Q 18.109375 38.921875 18.109375 30.90625 
L 18.109375 0 
L 9.078125 0 
L 9.078125 54.6875 
L 18.109375 54.6875 
L 18.109375 46.1875 
Q 21.34375 51.125 25.703125 53.5625 
Q 30.078125 56 35.796875 56 
Q 45.21875 56 50.046875 50.171875 
Q 54.890625 44.34375 54.890625 33.015625 
z
" id="DejaVuSans-110"/>
       <path d="M 9.421875 54.6875 
L 18.40625 54.6875 
L 18.40625 -0.984375 
Q 18.40625 -11.421875 14.421875 -16.109375 
Q 10.453125 -20.796875 1.609375 -20.796875 
L -1.8125 -20.796875 
L -1.8125 -13.1875 
L 0.59375 -13.1875 
Q 5.71875 -13.1875 7.5625 -10.8125 
Q 9.421875 -8.453125 9.421875 -0.984375 
z
M 9.421875 75.984375 
L 18.40625 75.984375 
L 18.40625 64.59375 
L 9.421875 64.59375 
z
" id="DejaVuSans-106"/>
       <path d="M 48.78125 52.59375 
L 48.78125 44.1875 
Q 44.96875 46.296875 41.140625 47.34375 
Q 37.3125 48.390625 33.40625 48.390625 
Q 24.65625 48.390625 19.8125 42.84375 
Q 14.984375 37.3125 14.984375 27.296875 
Q 14.984375 17.28125 19.8125 11.734375 
Q 24.65625 6.203125 33.40625 6.203125 
Q 37.3125 6.203125 41.140625 7.25 
Q 44.96875 8.296875 48.78125 10.40625 
L 48.78125 2.09375 
Q 45.015625 0.34375 40.984375 -0.53125 
Q 36.96875 -1.421875 32.421875 -1.421875 
Q 20.0625 -1.421875 12.78125 6.34375 
Q 5.515625 14.109375 5.515625 27.296875 
Q 5.515625 40.671875 12.859375 48.328125 
Q 20.21875 56 33.015625 56 
Q 37.15625 56 41.109375 55.140625 
Q 45.0625 54.296875 48.78125 52.59375 
z
" id="DejaVuSans-99"/>
       <path d="M 18.3125 70.21875 
L 18.3125 54.6875 
L 36.8125 54.6875 
L 36.8125 47.703125 
L 18.3125 47.703125 
L 18.3125 18.015625 
Q 18.3125 11.328125 20.140625 9.421875 
Q 21.96875 7.515625 27.59375 7.515625 
L 36.8125 7.515625 
L 36.8125 0 
L 27.59375 0 
Q 17.1875 0 13.234375 3.875 
Q 9.28125 7.765625 9.28125 18.015625 
L 9.28125 47.703125 
L 2.6875 47.703125 
L 2.6875 54.6875 
L 9.28125 54.6875 
L 9.28125 70.21875 
z
" id="DejaVuSans-116"/>
       <path d="M 45.40625 46.390625 
L 45.40625 75.984375 
L 54.390625 75.984375 
L 54.390625 0 
L 45.40625 0 
L 45.40625 8.203125 
Q 42.578125 3.328125 38.25 0.953125 
Q 33.9375 -1.421875 27.875 -1.421875 
Q 17.96875 -1.421875 11.734375 6.484375 
Q 5.515625 14.40625 5.515625 27.296875 
Q 5.515625 40.1875 11.734375 48.09375 
Q 17.96875 56 27.875 56 
Q 33.9375 56 38.25 53.625 
Q 42.578125 51.265625 45.40625 46.390625 
z
M 14.796875 27.296875 
Q 14.796875 17.390625 18.875 11.75 
Q 22.953125 6.109375 30.078125 6.109375 
Q 37.203125 6.109375 41.296875 11.75 
Q 45.40625 17.390625 45.40625 27.296875 
Q 45.40625 37.203125 41.296875 42.84375 
Q 37.203125 48.484375 30.078125 48.484375 
Q 22.953125 48.484375 18.875 42.84375 
Q 14.796875 37.203125 14.796875 27.296875 
z
" id="DejaVuSans-100"/>
       <path d="M 34.28125 27.484375 
Q 23.390625 27.484375 19.1875 25 
Q 14.984375 22.515625 14.984375 16.5 
Q 14.984375 11.71875 18.140625 8.90625 
Q 21.296875 6.109375 26.703125 6.109375 
Q 34.1875 6.109375 38.703125 11.40625 
Q 43.21875 16.703125 43.21875 25.484375 
L 43.21875 27.484375 
z
M 52.203125 31.203125 
L 52.203125 0 
L 43.21875 0 
L 43.21875 8.296875 
Q 40.140625 3.328125 35.546875 0.953125 
Q 30.953125 -1.421875 24.3125 -1.421875 
Q 15.921875 -1.421875 10.953125 3.296875 
Q 6 8.015625 6 15.921875 
Q 6 25.140625 12.171875 29.828125 
Q 18.359375 34.515625 30.609375 34.515625 
L 43.21875 34.515625 
L 43.21875 35.40625 
Q 43.21875 41.609375 39.140625 45 
Q 35.0625 48.390625 27.6875 48.390625 
Q 23 48.390625 18.546875 47.265625 
Q 14.109375 46.140625 10.015625 43.890625 
L 10.015625 52.203125 
Q 14.9375 54.109375 19.578125 55.046875 
Q 24.21875 56 28.609375 56 
Q 40.484375 56 46.34375 49.84375 
Q 52.203125 43.703125 52.203125 31.203125 
z
" id="DejaVuSans-97"/>
       <path d="M 41.109375 46.296875 
Q 39.59375 47.171875 37.8125 47.578125 
Q 36.03125 48 33.890625 48 
Q 26.265625 48 22.1875 43.046875 
Q 18.109375 38.09375 18.109375 28.8125 
L 18.109375 0 
L 9.078125 0 
L 9.078125 54.6875 
L 18.109375 54.6875 
L 18.109375 46.1875 
Q 20.953125 51.171875 25.484375 53.578125 
Q 30.03125 56 36.53125 56 
Q 37.453125 56 38.578125 55.875 
Q 39.703125 55.765625 41.0625 55.515625 
z
" id="DejaVuSans-114"/>
       <path d="M 31 75.875 
Q 24.46875 64.65625 21.28125 53.65625 
Q 18.109375 42.671875 18.109375 31.390625 
Q 18.109375 20.125 21.3125 9.0625 
Q 24.515625 -2 31 -13.1875 
L 23.1875 -13.1875 
Q 15.875 -1.703125 12.234375 9.375 
Q 8.59375 20.453125 8.59375 31.390625 
Q 8.59375 42.28125 12.203125 53.3125 
Q 15.828125 64.359375 23.1875 75.875 
z
" id="DejaVuSans-40"/>
       <path d="M 8.015625 75.875 
L 15.828125 75.875 
Q 23.140625 64.359375 26.78125 53.3125 
Q 30.421875 42.28125 30.421875 31.390625 
Q 30.421875 20.453125 26.78125 9.375 
Q 23.140625 -1.703125 15.828125 -13.1875 
L 8.015625 -13.1875 
Q 14.5 -2 17.703125 9.0625 
Q 20.90625 20.125 20.90625 31.390625 
Q 20.90625 42.671875 17.703125 53.65625 
Q 14.5 64.65625 8.015625 75.875 
z
" id="DejaVuSans-41"/>
      </defs>
      <use xlink:href="#DejaVuSans-86"/>
      <use x="60.658203" xlink:href="#DejaVuSans-111"/>
      <use x="121.839844" xlink:href="#DejaVuSans-108"/>
      <use x="149.623047" xlink:href="#DejaVuSans-117"/>
      <use x="213.001953" xlink:href="#DejaVuSans-109"/>
      <use x="310.414062" xlink:href="#DejaVuSans-101"/>
      <use x="371.9375" xlink:href="#DejaVuSans-32"/>
      <use x="403.724609" xlink:href="#DejaVuSans-111"/>
      <use x="464.90625" xlink:href="#DejaVuSans-102"/>
      <use x="500.111328" xlink:href="#DejaVuSans-32"/>
      <use x="531.898438" xlink:href="#DejaVuSans-105"/>
      <use x="559.681641" xlink:href="#DejaVuSans-110"/>
      <use x="623.060547" xlink:href="#DejaVuSans-106"/>
      <use x="650.84375" xlink:href="#DejaVuSans-101"/>
      <use x="712.367188" xlink:href="#DejaVuSans-99"/>
      <use x="767.347656" xlink:href="#DejaVuSans-116"/>
      <use x="806.556641" xlink:href="#DejaVuSans-101"/>
      <use x="868.080078" xlink:href="#DejaVuSans-100"/>
      <use x="931.556641" xlink:href="#DejaVuSans-32"/>
      <use x="963.34375" xlink:href="#DejaVuSans-97"/>
      <use x="1024.623047" xlink:href="#DejaVuSans-105"/>
      <use x="1052.40625" xlink:href="#DejaVuSans-114"/>
      <use x="1093.519531" xlink:href="#DejaVuSans-32"/>
      <use x="1125.306641" xlink:href="#DejaVuSans-40"/>
      <use x="1164.320312" xlink:href="#DejaVuSans-109"/>
      <use x="1261.732422" xlink:href="#DejaVuSans-108"/>
      <use x="1289.515625" xlink:href="#DejaVuSans-41"/>
     </g>
    </g>
   </g>
   <g id="matplotlib.axis_2">
    <g id="ytick_1">
     <g id="line2d_15">
      <path clip-path="url(#p0b9730a3e1)" d="M 86.04 491.534335 
L 619.488 491.534335 
" style="fill:none;stroke:#b0b0b0;stroke-linecap:square;stroke-width:0.8;"/>
     </g>
     <g id="line2d_16">
      <defs>
       <path d="M 0 0 
L -3.5 0 
" id="m40ff0993fa" style="stroke:#000000;stroke-width:0.8;"/>
      </defs>
      <g>
       <use style="stroke:#000000;stroke-width:0.8;" x="86.04" xlink:href="#m40ff0993fa" y="491.534335"/>
      </g>
     </g>
     <g id="text_9">
      <!-- 2 -->
      <g transform="translate(72.6775 495.333554)scale(0.1 -0.1)">
       <use xlink:href="#DejaVuSans-50"/>
      </g>
     </g>
    </g>
    <g id="ytick_2">
     <g id="line2d_17">
      <path clip-path="url(#p0b9730a3e1)" d="M 86.04 424.097622 
L 619.488 424.097622 
" style="fill:none;stroke:#b0b0b0;stroke-linecap:square;stroke-width:0.8;"/>
     </g>
     <g id="line2d_18">
      <g>
       <use style="stroke:#000000;stroke-width:0.8;" x="86.04" xlink:href="#m40ff0993fa" y="424.097622"/>
      </g>
     </g>
     <g id="text_10">
      <!-- 4 -->
      <g transform="translate(72.6775 427.89684)scale(0.1 -0.1)">
       <use xlink:href="#DejaVuSans-52"/>
      </g>
     </g>
    </g>
    <g id="ytick_3">
     <g id="line2d_19">
      <path clip-path="url(#p0b9730a3e1)" d="M 86.04 356.660908 
L 619.488 356.660908 
" style="fill:none;stroke:#b0b0b0;stroke-linecap:square;stroke-width:0.8;"/>
     </g>
     <g id="line2d_20">
      <g>
       <use style="stroke:#000000;stroke-width:0.8;" x="86.04" xlink:href="#m40ff0993fa" y="356.660908"/>
      </g>
     </g>
     <g id="text_11">
      <!-- 6 -->
      <g transform="translate(72.6775 360.460127)scale(0.1 -0.1)">
       <use xlink:href="#DejaVuSans-54"/>
      </g>
     </g>
    </g>
    <g id="ytick_4">
     <g id="line2d_21">
      <path clip-path="url(#p0b9730a3e1)" d="M 86.04 289.224194 
L 619.488 289.224194 
" style="fill:none;stroke:#b0b0b0;stroke-linecap:square;stroke-width:0.8;"/>
     </g>
     <g id="line2d_22">
      <g>
       <use style="stroke:#000000;stroke-width:0.8;" x="86.04" xlink:href="#m40ff0993fa" y="289.224194"/>
      </g>
     </g>
     <g id="text_12">
      <!-- 8 -->
      <g transform="translate(72.6775 293.023413)scale(0.1 -0.1)">
       <defs>
        <path d="M 31.78125 34.625 
Q 24.75 34.625 20.71875 30.859375 
Q 16.703125 27.09375 16.703125 20.515625 
Q 16.703125 13.921875 20.71875 10.15625 
Q 24.75 6.390625 31.78125 6.390625 
Q 38.8125 6.390625 42.859375 10.171875 
Q 46.921875 13.96875 46.921875 20.515625 
Q 46.921875 27.09375 42.890625 30.859375 
Q 38.875 34.625 31.78125 34.625 
z
M 21.921875 38.8125 
Q 15.578125 40.375 12.03125 44.71875 
Q 8.5 49.078125 8.5 55.328125 
Q 8.5 64.0625 14.71875 69.140625 
Q 20.953125 74.21875 31.78125 74.21875 
Q 42.671875 74.21875 48.875 69.140625 
Q 55.078125 64.0625 55.078125 55.328125 
Q 55.078125 49.078125 51.53125 44.71875 
Q 48 40.375 41.703125 38.8125 
Q 48.828125 37.15625 52.796875 32.3125 
Q 56.78125 27.484375 56.78125 20.515625 
Q 56.78125 9.90625 50.3125 4.234375 
Q 43.84375 -1.421875 31.78125 -1.421875 
Q 19.734375 -1.421875 13.25 4.234375 
Q 6.78125 9.90625 6.78125 20.515625 
Q 6.78125 27.484375 10.78125 32.3125 
Q 14.796875 37.15625 21.921875 38.8125 
z
M 18.3125 54.390625 
Q 18.3125 48.734375 21.84375 45.5625 
Q 25.390625 42.390625 31.78125 42.390625 
Q 38.140625 42.390625 41.71875 45.5625 
Q 45.3125 48.734375 45.3125 54.390625 
Q 45.3125 60.0625 41.71875 63.234375 
Q 38.140625 66.40625 31.78125 66.40625 
Q 25.390625 66.40625 21.84375 63.234375 
Q 18.3125 60.0625 18.3125 54.390625 
z
" id="DejaVuSans-56"/>
       </defs>
       <use xlink:href="#DejaVuSans-56"/>
      </g>
     </g>
    </g>
    <g id="ytick_5">
     <g id="line2d_23">
      <path clip-path="url(#p0b9730a3e1)" d="M 86.04 221.78748 
L 619.488 221.78748 
" style="fill:none;stroke:#b0b0b0;stroke-linecap:square;stroke-width:0.8;"/>
     </g>
     <g id="line2d_24">
      <g>
       <use style="stroke:#000000;stroke-width:0.8;" x="86.04" xlink:href="#m40ff0993fa" y="221.78748"/>
      </g>
     </g>
     <g id="text_13">
      <!-- 10 -->
      <g transform="translate(66.315 225.586699)scale(0.1 -0.1)">
       <use xlink:href="#DejaVuSans-49"/>
       <use x="63.623047" xlink:href="#DejaVuSans-48"/>
      </g>
     </g>
    </g>
    <g id="ytick_6">
     <g id="line2d_25">
      <path clip-path="url(#p0b9730a3e1)" d="M 86.04 154.350767 
L 619.488 154.350767 
" style="fill:none;stroke:#b0b0b0;stroke-linecap:square;stroke-width:0.8;"/>
     </g>
     <g id="line2d_26">
      <g>
       <use style="stroke:#000000;stroke-width:0.8;" x="86.04" xlink:href="#m40ff0993fa" y="154.350767"/>
      </g>
     </g>
     <g id="text_14">
      <!-- 12 -->
      <g transform="translate(66.315 158.149985)scale(0.1 -0.1)">
       <use xlink:href="#DejaVuSans-49"/>
       <use x="63.623047" xlink:href="#DejaVuSans-50"/>
      </g>
     </g>
    </g>
    <g id="ytick_7">
     <g id="line2d_27">
      <path clip-path="url(#p0b9730a3e1)" d="M 86.04 86.914053 
L 619.488 86.914053 
" style="fill:none;stroke:#b0b0b0;stroke-linecap:square;stroke-width:0.8;"/>
     </g>
     <g id="line2d_28">
      <g>
       <use style="stroke:#000000;stroke-width:0.8;" x="86.04" xlink:href="#m40ff0993fa" y="86.914053"/>
      </g>
     </g>
     <g id="text_15">
      <!-- 14 -->
      <g transform="translate(66.315 90.713272)scale(0.1 -0.1)">
       <use xlink:href="#DejaVuSans-49"/>
       <use x="63.623047" xlink:href="#DejaVuSans-52"/>
      </g>
     </g>
    </g>
    <g id="text_16">
     <!-- Corrected clamping radius of the gripper -->
     <g transform="translate(59.195469 454.792687)rotate(-90)scale(0.15 -0.15)">
      <defs>
       <path d="M 64.40625 67.28125 
L 64.40625 56.890625 
Q 59.421875 61.53125 53.78125 63.8125 
Q 48.140625 66.109375 41.796875 66.109375 
Q 29.296875 66.109375 22.65625 58.46875 
Q 16.015625 50.828125 16.015625 36.375 
Q 16.015625 21.96875 22.65625 14.328125 
Q 29.296875 6.6875 41.796875 6.6875 
Q 48.140625 6.6875 53.78125 8.984375 
Q 59.421875 11.28125 64.40625 15.921875 
L 64.40625 5.609375 
Q 59.234375 2.09375 53.4375 0.328125 
Q 47.65625 -1.421875 41.21875 -1.421875 
Q 24.65625 -1.421875 15.125 8.703125 
Q 5.609375 18.84375 5.609375 36.375 
Q 5.609375 53.953125 15.125 64.078125 
Q 24.65625 74.21875 41.21875 74.21875 
Q 47.75 74.21875 53.53125 72.484375 
Q 59.328125 70.75 64.40625 67.28125 
z
" id="DejaVuSans-67"/>
       <path d="M 18.109375 8.203125 
L 18.109375 -20.796875 
L 9.078125 -20.796875 
L 9.078125 54.6875 
L 18.109375 54.6875 
L 18.109375 46.390625 
Q 20.953125 51.265625 25.265625 53.625 
Q 29.59375 56 35.59375 56 
Q 45.5625 56 51.78125 48.09375 
Q 58.015625 40.1875 58.015625 27.296875 
Q 58.015625 14.40625 51.78125 6.484375 
Q 45.5625 -1.421875 35.59375 -1.421875 
Q 29.59375 -1.421875 25.265625 0.953125 
Q 20.953125 3.328125 18.109375 8.203125 
z
M 48.6875 27.296875 
Q 48.6875 37.203125 44.609375 42.84375 
Q 40.53125 48.484375 33.40625 48.484375 
Q 26.265625 48.484375 22.1875 42.84375 
Q 18.109375 37.203125 18.109375 27.296875 
Q 18.109375 17.390625 22.1875 11.75 
Q 26.265625 6.109375 33.40625 6.109375 
Q 40.53125 6.109375 44.609375 11.75 
Q 48.6875 17.390625 48.6875 27.296875 
z
" id="DejaVuSans-112"/>
       <path d="M 45.40625 27.984375 
Q 45.40625 37.75 41.375 43.109375 
Q 37.359375 48.484375 30.078125 48.484375 
Q 22.859375 48.484375 18.828125 43.109375 
Q 14.796875 37.75 14.796875 27.984375 
Q 14.796875 18.265625 18.828125 12.890625 
Q 22.859375 7.515625 30.078125 7.515625 
Q 37.359375 7.515625 41.375 12.890625 
Q 45.40625 18.265625 45.40625 27.984375 
z
M 54.390625 6.78125 
Q 54.390625 -7.171875 48.1875 -13.984375 
Q 42 -20.796875 29.203125 -20.796875 
Q 24.46875 -20.796875 20.265625 -20.09375 
Q 16.0625 -19.390625 12.109375 -17.921875 
L 12.109375 -9.1875 
Q 16.0625 -11.328125 19.921875 -12.34375 
Q 23.78125 -13.375 27.78125 -13.375 
Q 36.625 -13.375 41.015625 -8.765625 
Q 45.40625 -4.15625 45.40625 5.171875 
L 45.40625 9.625 
Q 42.625 4.78125 38.28125 2.390625 
Q 33.9375 0 27.875 0 
Q 17.828125 0 11.671875 7.65625 
Q 5.515625 15.328125 5.515625 27.984375 
Q 5.515625 40.671875 11.671875 48.328125 
Q 17.828125 56 27.875 56 
Q 33.9375 56 38.28125 53.609375 
Q 42.625 51.21875 45.40625 46.390625 
L 45.40625 54.6875 
L 54.390625 54.6875 
z
" id="DejaVuSans-103"/>
       <path d="M 44.28125 53.078125 
L 44.28125 44.578125 
Q 40.484375 46.53125 36.375 47.5 
Q 32.28125 48.484375 27.875 48.484375 
Q 21.1875 48.484375 17.84375 46.4375 
Q 14.5 44.390625 14.5 40.28125 
Q 14.5 37.15625 16.890625 35.375 
Q 19.28125 33.59375 26.515625 31.984375 
L 29.59375 31.296875 
Q 39.15625 29.25 43.1875 25.515625 
Q 47.21875 21.78125 47.21875 15.09375 
Q 47.21875 7.46875 41.1875 3.015625 
Q 35.15625 -1.421875 24.609375 -1.421875 
Q 20.21875 -1.421875 15.453125 -0.5625 
Q 10.6875 0.296875 5.421875 2 
L 5.421875 11.28125 
Q 10.40625 8.6875 15.234375 7.390625 
Q 20.0625 6.109375 24.8125 6.109375 
Q 31.15625 6.109375 34.5625 8.28125 
Q 37.984375 10.453125 37.984375 14.40625 
Q 37.984375 18.0625 35.515625 20.015625 
Q 33.0625 21.96875 24.703125 23.78125 
L 21.578125 24.515625 
Q 13.234375 26.265625 9.515625 29.90625 
Q 5.8125 33.546875 5.8125 39.890625 
Q 5.8125 47.609375 11.28125 51.796875 
Q 16.75 56 26.8125 56 
Q 31.78125 56 36.171875 55.265625 
Q 40.578125 54.546875 44.28125 53.078125 
z
" id="DejaVuSans-115"/>
       <path d="M 54.890625 33.015625 
L 54.890625 0 
L 45.90625 0 
L 45.90625 32.71875 
Q 45.90625 40.484375 42.875 44.328125 
Q 39.84375 48.1875 33.796875 48.1875 
Q 26.515625 48.1875 22.3125 43.546875 
Q 18.109375 38.921875 18.109375 30.90625 
L 18.109375 0 
L 9.078125 0 
L 9.078125 75.984375 
L 18.109375 75.984375 
L 18.109375 46.1875 
Q 21.34375 51.125 25.703125 53.5625 
Q 30.078125 56 35.796875 56 
Q 45.21875 56 50.046875 50.171875 
Q 54.890625 44.34375 54.890625 33.015625 
z
" id="DejaVuSans-104"/>
      </defs>
      <use xlink:href="#DejaVuSans-67"/>
      <use x="69.824219" xlink:href="#DejaVuSans-111"/>
      <use x="131.005859" xlink:href="#DejaVuSans-114"/>
      <use x="170.369141" xlink:href="#DejaVuSans-114"/>
      <use x="209.232422" xlink:href="#DejaVuSans-101"/>
      <use x="270.755859" xlink:href="#DejaVuSans-99"/>
      <use x="325.736328" xlink:href="#DejaVuSans-116"/>
      <use x="364.945312" xlink:href="#DejaVuSans-101"/>
      <use x="426.46875" xlink:href="#DejaVuSans-100"/>
      <use x="489.945312" xlink:href="#DejaVuSans-32"/>
      <use x="521.732422" xlink:href="#DejaVuSans-99"/>
      <use x="576.712891" xlink:href="#DejaVuSans-108"/>
      <use x="604.496094" xlink:href="#DejaVuSans-97"/>
      <use x="665.775391" xlink:href="#DejaVuSans-109"/>
      <use x="763.1875" xlink:href="#DejaVuSans-112"/>
      <use x="826.664062" xlink:href="#DejaVuSans-105"/>
      <use x="854.447266" xlink:href="#DejaVuSans-110"/>
      <use x="917.826172" xlink:href="#DejaVuSans-103"/>
      <use x="981.302734" xlink:href="#DejaVuSans-32"/>
      <use x="1013.089844" xlink:href="#DejaVuSans-114"/>
      <use x="1054.203125" xlink:href="#DejaVuSans-97"/>
      <use x="1115.482422" xlink:href="#DejaVuSans-100"/>
      <use x="1178.958984" xlink:href="#DejaVuSans-105"/>
      <use x="1206.742188" xlink:href="#DejaVuSans-117"/>
      <use x="1270.121094" xlink:href="#DejaVuSans-115"/>
      <use x="1322.220703" xlink:href="#DejaVuSans-32"/>
      <use x="1354.007812" xlink:href="#DejaVuSans-111"/>
      <use x="1415.189453" xlink:href="#DejaVuSans-102"/>
      <use x="1450.394531" xlink:href="#DejaVuSans-32"/>
      <use x="1482.181641" xlink:href="#DejaVuSans-116"/>
      <use x="1521.390625" xlink:href="#DejaVuSans-104"/>
      <use x="1584.769531" xlink:href="#DejaVuSans-101"/>
      <use x="1646.292969" xlink:href="#DejaVuSans-32"/>
      <use x="1678.080078" xlink:href="#DejaVuSans-103"/>
      <use x="1741.556641" xlink:href="#DejaVuSans-114"/>
      <use x="1782.669922" xlink:href="#DejaVuSans-105"/>
      <use x="1810.453125" xlink:href="#DejaVuSans-112"/>
      <use x="1873.929688" xlink:href="#DejaVuSans-112"/>
      <use x="1937.40625" xlink:href="#DejaVuSans-101"/>
      <use x="1998.929688" xlink:href="#DejaVuSans-114"/>
     </g>
    </g>
   </g>
   <g id="line2d_29">
    <path clip-path="url(#p0b9730a3e1)" d="M 110.287636 95.117598 
L 115.186149 94.64781 
L 120.084661 95.465504 
L 124.983174 97.471173 
L 129.881686 100.569252 
L 134.780198 104.668047 
L 139.678711 109.679669 
L 144.577223 115.519957 
L 149.475736 122.108416 
L 154.374248 129.36814 
L 159.27276 137.225745 
L 164.171273 145.611296 
L 169.069785 154.458244 
L 173.968298 163.703347 
L 178.86681 173.286604 
L 183.765322 183.151187 
L 188.663835 193.243365 
L 193.562347 203.512439 
L 198.46086 213.910671 
L 203.359372 224.393211 
L 208.257884 234.91803 
L 213.156397 245.445848 
L 218.054909 255.940064 
L 222.953421 266.366686 
L 227.851934 276.694263 
L 232.750446 286.893811 
L 237.648959 296.938744 
L 242.547471 306.804807 
L 247.445983 316.470001 
L 252.344496 325.914517 
L 257.243008 335.120662 
L 262.141521 344.072793 
L 267.040033 352.757242 
L 271.938545 361.162253 
L 276.837058 369.277902 
L 281.73557 377.096035 
L 286.634083 384.610195 
L 291.532595 391.815551 
L 296.431107 398.708829 
L 301.32962 405.288242 
L 306.228132 411.553418 
L 311.126645 417.505332 
L 316.025157 423.146236 
L 320.923669 428.479585 
L 325.822182 433.509972 
L 330.720694 438.243056 
L 335.619207 442.685488 
L 340.517719 446.844846 
L 345.416231 450.729565 
L 350.314744 454.348861 
L 355.213256 457.712668 
L 360.111769 460.831562 
L 365.010281 463.716694 
L 369.908793 466.379719 
L 374.807306 468.832727 
L 379.705818 471.08817 
L 384.604331 473.158796 
L 389.502843 475.057573 
L 394.401355 476.797625 
L 399.299868 478.392158 
L 404.19838 479.854391 
L 409.096893 481.197487 
L 413.995405 482.434479 
L 418.893917 483.578204 
L 423.79243 484.641232 
L 428.690942 485.635793 
L 433.589455 486.573711 
L 438.487967 487.46633 
L 443.386479 488.324446 
L 448.284992 489.158237 
L 453.183504 489.977192 
L 458.082017 490.79004 
L 462.980529 491.604683 
L 467.879041 492.428122 
L 472.777554 493.266388 
L 477.676066 494.124475 
L 482.574579 495.006263 
L 487.473091 495.914457 
L 492.371603 496.850508 
L 497.270116 497.814549 
L 502.168628 498.80532 
L 507.06714 499.820103 
L 511.965653 500.854648 
L 516.864165 501.903104 
L 521.762678 502.957948 
L 526.66119 504.009918 
L 531.559702 505.047938 
L 536.458215 506.059052 
L 541.356727 507.02835 
L 546.25524 507.938904 
L 551.153752 508.771688 
L 556.052264 509.50552 
L 560.950777 510.116981 
L 565.849289 510.58035 
L 570.747802 510.867536 
L 575.646314 510.948 
L 580.544826 510.788694 
L 585.443339 510.353986 
L 590.341851 509.605588 
L 595.240364 508.502491 
" style="fill:none;stroke:#1f77b4;stroke-linecap:square;stroke-width:1.5;"/>
   </g>
   <g id="patch_3">
    <path d="M 86.04 531.864 
L 86.04 71.712 
" style="fill:none;stroke:#000000;stroke-linecap:square;stroke-linejoin:miter;stroke-width:0.8;"/>
   </g>
   <g id="patch_4">
    <path d="M 619.488 531.864 
L 619.488 71.712 
" style="fill:none;stroke:#000000;stroke-linecap:square;stroke-linejoin:miter;stroke-width:0.8;"/>
   </g>
   <g id="patch_5">
    <path d="M 86.04 531.864 
L 619.488 531.864 
" style="fill:none;stroke:#000000;stroke-linecap:square;stroke-linejoin:miter;stroke-width:0.8;"/>
   </g>
   <g id="patch_6">
    <path d="M 86.04 71.712 
L 619.488 71.712 
" style="fill:none;stroke:#000000;stroke-linecap:square;stroke-linejoin:miter;stroke-width:0.8;"/>
   </g>
   <g id="text_17">
    <!-- $R^2 =$0.999 -->
    <g transform="translate(353.639455 230.065605)scale(0.3 -0.3)">
     <defs>
      <path d="M 25.203125 64.796875 
L 20.21875 38.921875 
L 32.90625 38.921875 
Q 40.375 38.921875 44.984375 43.046875 
Q 49.609375 47.171875 49.609375 53.8125 
Q 49.609375 59.125 46.5 61.953125 
Q 43.40625 64.796875 37.59375 64.796875 
z
M 43.3125 35.015625 
Q 46.4375 34.28125 48.515625 31.390625 
Q 50.59375 28.515625 53.328125 19.921875 
L 59.515625 0 
L 49.125 0 
L 43.40625 18.703125 
Q 41.21875 25.921875 38.328125 28.359375 
Q 35.453125 30.8125 29.5 30.8125 
L 18.609375 30.8125 
L 12.59375 0 
L 2.6875 0 
L 16.890625 72.90625 
L 39.109375 72.90625 
Q 49.21875 72.90625 54.609375 68.328125 
Q 60.015625 63.765625 60.015625 55.171875 
Q 60.015625 47.5625 55.421875 41.984375 
Q 50.828125 36.421875 43.3125 35.015625 
z
" id="DejaVuSans-Oblique-82"/>
      <path d="M 10.59375 45.40625 
L 73.1875 45.40625 
L 73.1875 37.203125 
L 10.59375 37.203125 
z
M 10.59375 25.484375 
L 73.1875 25.484375 
L 73.1875 17.1875 
L 10.59375 17.1875 
z
" id="DejaVuSans-61"/>
      <path d="M 10.6875 12.40625 
L 21 12.40625 
L 21 0 
L 10.6875 0 
z
" id="DejaVuSans-46"/>
      <path d="M 10.984375 1.515625 
L 10.984375 10.5 
Q 14.703125 8.734375 18.5 7.8125 
Q 22.3125 6.890625 25.984375 6.890625 
Q 35.75 6.890625 40.890625 13.453125 
Q 46.046875 20.015625 46.78125 33.40625 
Q 43.953125 29.203125 39.59375 26.953125 
Q 35.25 24.703125 29.984375 24.703125 
Q 19.046875 24.703125 12.671875 31.3125 
Q 6.296875 37.9375 6.296875 49.421875 
Q 6.296875 60.640625 12.9375 67.421875 
Q 19.578125 74.21875 30.609375 74.21875 
Q 43.265625 74.21875 49.921875 64.515625 
Q 56.59375 54.828125 56.59375 36.375 
Q 56.59375 19.140625 48.40625 8.859375 
Q 40.234375 -1.421875 26.421875 -1.421875 
Q 22.703125 -1.421875 18.890625 -0.6875 
Q 15.09375 0.046875 10.984375 1.515625 
z
M 30.609375 32.421875 
Q 37.25 32.421875 41.125 36.953125 
Q 45.015625 41.5 45.015625 49.421875 
Q 45.015625 57.28125 41.125 61.84375 
Q 37.25 66.40625 30.609375 66.40625 
Q 23.96875 66.40625 20.09375 61.84375 
Q 16.21875 57.28125 16.21875 49.421875 
Q 16.21875 41.5 20.09375 36.953125 
Q 23.96875 32.421875 30.609375 32.421875 
z
" id="DejaVuSans-57"/>
     </defs>
     <use transform="translate(0 0.765625)" xlink:href="#DejaVuSans-Oblique-82"/>
     <use transform="translate(76.499193 39.046875)scale(0.7)" xlink:href="#DejaVuSans-50"/>
     <use transform="translate(143.252122 0.765625)" xlink:href="#DejaVuSans-61"/>
     <use transform="translate(246.523607 0.765625)" xlink:href="#DejaVuSans-48"/>
     <use transform="translate(310.146654 0.765625)" xlink:href="#DejaVuSans-46"/>
     <use transform="translate(341.933763 0.765625)" xlink:href="#DejaVuSans-57"/>
     <use transform="translate(405.55681 0.765625)" xlink:href="#DejaVuSans-57"/>
     <use transform="translate(469.179857 0.765625)" xlink:href="#DejaVuSans-57"/>
    </g>
   </g>
   <g id="text_18">
    <!-- $CCR = 2.12 10^{-7}V^5 - 3.73 10^{-5}V^4 + 2.34 \cdot 10^{-3}V^3$ -->
    <g transform="translate(255.164455 259.6449)scale(0.15 -0.15)">
     <defs>
      <path d="M 69.484375 67.28125 
L 67.484375 56.890625 
Q 62.796875 61.625 57.546875 63.921875 
Q 52.296875 66.21875 46.1875 66.21875 
Q 37.84375 66.21875 31.515625 62.203125 
Q 25.203125 58.203125 20.609375 50 
Q 17.671875 44.734375 16.125 38.84375 
Q 14.59375 32.953125 14.59375 27 
Q 14.59375 17.046875 19.75 11.8125 
Q 24.90625 6.59375 34.71875 6.59375 
Q 41.5 6.59375 47.75 8.765625 
Q 54 10.9375 59.90625 15.28125 
L 57.625 3.609375 
Q 51.8125 1.125 45.875 -0.140625 
Q 39.9375 -1.421875 33.984375 -1.421875 
Q 19.96875 -1.421875 12.078125 6.1875 
Q 4.203125 13.8125 4.203125 27.390625 
Q 4.203125 36.078125 7.203125 44.46875 
Q 10.203125 52.875 15.828125 59.8125 
Q 21.78125 67.1875 29.421875 70.703125 
Q 37.0625 74.21875 47.21875 74.21875 
Q 53.46875 74.21875 59.0625 72.484375 
Q 64.65625 70.75 69.484375 67.28125 
z
" id="DejaVuSans-Oblique-67"/>
      <path d="M 10.59375 35.5 
L 73.1875 35.5 
L 73.1875 27.203125 
L 10.59375 27.203125 
z
" id="DejaVuSans-8722"/>
      <path d="M 8.203125 72.90625 
L 55.078125 72.90625 
L 55.078125 68.703125 
L 28.609375 0 
L 18.3125 0 
L 43.21875 64.59375 
L 8.203125 64.59375 
z
" id="DejaVuSans-55"/>
      <path d="M 20.609375 0 
L 7.8125 72.90625 
L 17.484375 72.90625 
L 28.078125 10.203125 
L 63.484375 72.90625 
L 74.21875 72.90625 
L 32.078125 0 
z
" id="DejaVuSans-Oblique-86"/>
      <path d="M 46 62.703125 
L 46 35.5 
L 73.1875 35.5 
L 73.1875 27.203125 
L 46 27.203125 
L 46 0 
L 37.796875 0 
L 37.796875 27.203125 
L 10.59375 27.203125 
L 10.59375 35.5 
L 37.796875 35.5 
L 37.796875 62.703125 
z
" id="DejaVuSans-43"/>
      <path d="M 10.6875 40.921875 
L 21 40.921875 
L 21 28.515625 
L 10.6875 28.515625 
z
" id="DejaVuSans-8901"/>
     </defs>
     <use transform="translate(0 0.765625)" xlink:href="#DejaVuSans-Oblique-67"/>
     <use transform="translate(69.824219 0.765625)" xlink:href="#DejaVuSans-Oblique-67"/>
     <use transform="translate(139.648438 0.765625)" xlink:href="#DejaVuSans-Oblique-82"/>
     <use transform="translate(228.613281 0.765625)" xlink:href="#DejaVuSans-61"/>
     <use transform="translate(331.884766 0.765625)" xlink:href="#DejaVuSans-50"/>
     <use transform="translate(395.507812 0.765625)" xlink:href="#DejaVuSans-46"/>
     <use transform="translate(427.294922 0.765625)" xlink:href="#DejaVuSans-49"/>
     <use transform="translate(490.917969 0.765625)" xlink:href="#DejaVuSans-50"/>
     <use transform="translate(554.541016 0.765625)" xlink:href="#DejaVuSans-49"/>
     <use transform="translate(618.164062 0.765625)" xlink:href="#DejaVuSans-48"/>
     <use transform="translate(682.744141 39.046875)scale(0.7)" xlink:href="#DejaVuSans-8722"/>
     <use transform="translate(741.396484 39.046875)scale(0.7)" xlink:href="#DejaVuSans-55"/>
     <use transform="translate(788.666992 0.765625)" xlink:href="#DejaVuSans-Oblique-86"/>
     <use transform="translate(864.091966 39.046875)scale(0.7)" xlink:href="#DejaVuSans-53"/>
     <use transform="translate(930.844896 0.765625)" xlink:href="#DejaVuSans-8722"/>
     <use transform="translate(1034.11638 0.765625)" xlink:href="#DejaVuSans-51"/>
     <use transform="translate(1097.739427 0.765625)" xlink:href="#DejaVuSans-46"/>
     <use transform="translate(1121.776536 0.765625)" xlink:href="#DejaVuSans-55"/>
     <use transform="translate(1185.399583 0.765625)" xlink:href="#DejaVuSans-51"/>
     <use transform="translate(1249.02263 0.765625)" xlink:href="#DejaVuSans-49"/>
     <use transform="translate(1312.645677 0.765625)" xlink:href="#DejaVuSans-48"/>
     <use transform="translate(1377.225755 39.046875)scale(0.7)" xlink:href="#DejaVuSans-8722"/>
     <use transform="translate(1435.878099 39.046875)scale(0.7)" xlink:href="#DejaVuSans-53"/>
     <use transform="translate(1483.148607 0.765625)" xlink:href="#DejaVuSans-Oblique-86"/>
     <use transform="translate(1558.573581 39.046875)scale(0.7)" xlink:href="#DejaVuSans-52"/>
     <use transform="translate(1625.32651 0.765625)" xlink:href="#DejaVuSans-43"/>
     <use transform="translate(1728.597995 0.765625)" xlink:href="#DejaVuSans-50"/>
     <use transform="translate(1792.221042 0.765625)" xlink:href="#DejaVuSans-46"/>
     <use transform="translate(1824.008151 0.765625)" xlink:href="#DejaVuSans-51"/>
     <use transform="translate(1887.631198 0.765625)" xlink:href="#DejaVuSans-52"/>
     <use transform="translate(1970.736667 0.765625)" xlink:href="#DejaVuSans-8901"/>
     <use transform="translate(2022.006198 0.765625)" xlink:href="#DejaVuSans-49"/>
     <use transform="translate(2085.629245 0.765625)" xlink:href="#DejaVuSans-48"/>
     <use transform="translate(2150.209323 39.046875)scale(0.7)" xlink:href="#DejaVuSans-8722"/>
     <use transform="translate(2208.861667 39.046875)scale(0.7)" xlink:href="#DejaVuSans-51"/>
     <use transform="translate(2256.132174 0.765625)" xlink:href="#DejaVuSans-Oblique-86"/>
     <use transform="translate(2331.557148 39.046875)scale(0.7)" xlink:href="#DejaVuSans-51"/>
    </g>
   </g>
   <g id="text_19">
    <!-- $- 5.61 \cdot 10^{-2}V^2 + 5.62 \cdot 10^{-2}V + 13.76$ -->
    <g transform="translate(294.539455 293.363257)scale(0.15 -0.15)">
     <use transform="translate(0 0.765625)" xlink:href="#DejaVuSans-8722"/>
     <use transform="translate(83.789062 0.765625)" xlink:href="#DejaVuSans-53"/>
     <use transform="translate(147.412109 0.765625)" xlink:href="#DejaVuSans-46"/>
     <use transform="translate(179.199219 0.765625)" xlink:href="#DejaVuSans-54"/>
     <use transform="translate(242.822266 0.765625)" xlink:href="#DejaVuSans-49"/>
     <use transform="translate(325.927734 0.765625)" xlink:href="#DejaVuSans-8901"/>
     <use transform="translate(377.197266 0.765625)" xlink:href="#DejaVuSans-49"/>
     <use transform="translate(440.820312 0.765625)" xlink:href="#DejaVuSans-48"/>
     <use transform="translate(505.400391 39.046875)scale(0.7)" xlink:href="#DejaVuSans-8722"/>
     <use transform="translate(564.052734 39.046875)scale(0.7)" xlink:href="#DejaVuSans-50"/>
     <use transform="translate(611.323242 0.765625)" xlink:href="#DejaVuSans-Oblique-86"/>
     <use transform="translate(686.748216 39.046875)scale(0.7)" xlink:href="#DejaVuSans-50"/>
     <use transform="translate(753.501146 0.765625)" xlink:href="#DejaVuSans-43"/>
     <use transform="translate(856.77263 0.765625)" xlink:href="#DejaVuSans-53"/>
     <use transform="translate(920.395677 0.765625)" xlink:href="#DejaVuSans-46"/>
     <use transform="translate(952.182786 0.765625)" xlink:href="#DejaVuSans-54"/>
     <use transform="translate(1015.805833 0.765625)" xlink:href="#DejaVuSans-50"/>
     <use transform="translate(1098.911302 0.765625)" xlink:href="#DejaVuSans-8901"/>
     <use transform="translate(1150.180833 0.765625)" xlink:href="#DejaVuSans-49"/>
     <use transform="translate(1213.80388 0.765625)" xlink:href="#DejaVuSans-48"/>
     <use transform="translate(1278.383958 39.046875)scale(0.7)" xlink:href="#DejaVuSans-8722"/>
     <use transform="translate(1337.036302 39.046875)scale(0.7)" xlink:href="#DejaVuSans-50"/>
     <use transform="translate(1384.30681 0.765625)" xlink:href="#DejaVuSans-Oblique-86"/>
     <use transform="translate(1472.197435 0.765625)" xlink:href="#DejaVuSans-43"/>
     <use transform="translate(1575.468919 0.765625)" xlink:href="#DejaVuSans-49"/>
     <use transform="translate(1639.091966 0.765625)" xlink:href="#DejaVuSans-51"/>
     <use transform="translate(1702.715013 0.765625)" xlink:href="#DejaVuSans-46"/>
     <use transform="translate(1726.752122 0.765625)" xlink:href="#DejaVuSans-55"/>
     <use transform="translate(1790.375169 0.765625)" xlink:href="#DejaVuSans-54"/>
    </g>
   </g>
   <g id="legend_1">
    <g id="patch_7">
     <path d="M 420.377063 127.746375 
L 608.988 127.746375 
Q 611.988 127.746375 611.988 124.746375 
L 611.988 82.212 
Q 611.988 79.212 608.988 79.212 
L 420.377063 79.212 
Q 417.377063 79.212 417.377063 82.212 
L 417.377063 124.746375 
Q 417.377063 127.746375 420.377063 127.746375 
z
" style="fill:#ffffff;opacity:0.8;stroke:#cccccc;stroke-linejoin:miter;"/>
    </g>
    <g id="line2d_30">
     <path d="M 423.377063 91.359656 
L 453.377063 91.359656 
" style="fill:none;stroke:#1f77b4;stroke-linecap:square;stroke-width:1.5;"/>
    </g>
    <g id="line2d_31"/>
    <g id="text_20">
     <!-- Predicted model -->
     <g transform="translate(465.377063 96.609656)scale(0.15 -0.15)">
      <defs>
       <path d="M 19.671875 64.796875 
L 19.671875 37.40625 
L 32.078125 37.40625 
Q 38.96875 37.40625 42.71875 40.96875 
Q 46.484375 44.53125 46.484375 51.125 
Q 46.484375 57.671875 42.71875 61.234375 
Q 38.96875 64.796875 32.078125 64.796875 
z
M 9.8125 72.90625 
L 32.078125 72.90625 
Q 44.34375 72.90625 50.609375 67.359375 
Q 56.890625 61.8125 56.890625 51.125 
Q 56.890625 40.328125 50.609375 34.8125 
Q 44.34375 29.296875 32.078125 29.296875 
L 19.671875 29.296875 
L 19.671875 0 
L 9.8125 0 
z
" id="DejaVuSans-80"/>
      </defs>
      <use xlink:href="#DejaVuSans-80"/>
      <use x="58.552734" xlink:href="#DejaVuSans-114"/>
      <use x="97.416016" xlink:href="#DejaVuSans-101"/>
      <use x="158.939453" xlink:href="#DejaVuSans-100"/>
      <use x="222.416016" xlink:href="#DejaVuSans-105"/>
      <use x="250.199219" xlink:href="#DejaVuSans-99"/>
      <use x="305.179688" xlink:href="#DejaVuSans-116"/>
      <use x="344.388672" xlink:href="#DejaVuSans-101"/>
      <use x="405.912109" xlink:href="#DejaVuSans-100"/>
      <use x="469.388672" xlink:href="#DejaVuSans-32"/>
      <use x="501.175781" xlink:href="#DejaVuSans-109"/>
      <use x="598.587891" xlink:href="#DejaVuSans-111"/>
      <use x="659.769531" xlink:href="#DejaVuSans-100"/>
      <use x="723.246094" xlink:href="#DejaVuSans-101"/>
      <use x="784.769531" xlink:href="#DejaVuSans-108"/>
     </g>
    </g>
    <g id="PathCollection_2">
     <g>
      <use style="fill:#ff0000;stroke:#ff0000;" x="438.377063" xlink:href="#m2892cd9dd9" y="114.689344"/>
     </g>
    </g>
    <g id="text_21">
     <!-- Experimental Data -->
     <g transform="translate(465.377063 118.626844)scale(0.15 -0.15)">
      <defs>
       <path d="M 9.8125 72.90625 
L 55.90625 72.90625 
L 55.90625 64.59375 
L 19.671875 64.59375 
L 19.671875 43.015625 
L 54.390625 43.015625 
L 54.390625 34.71875 
L 19.671875 34.71875 
L 19.671875 8.296875 
L 56.78125 8.296875 
L 56.78125 0 
L 9.8125 0 
z
" id="DejaVuSans-69"/>
       <path d="M 54.890625 54.6875 
L 35.109375 28.078125 
L 55.90625 0 
L 45.3125 0 
L 29.390625 21.484375 
L 13.484375 0 
L 2.875 0 
L 24.125 28.609375 
L 4.6875 54.6875 
L 15.28125 54.6875 
L 29.78125 35.203125 
L 44.28125 54.6875 
z
" id="DejaVuSans-120"/>
       <path d="M 19.671875 64.796875 
L 19.671875 8.109375 
L 31.59375 8.109375 
Q 46.6875 8.109375 53.6875 14.9375 
Q 60.6875 21.78125 60.6875 36.53125 
Q 60.6875 51.171875 53.6875 57.984375 
Q 46.6875 64.796875 31.59375 64.796875 
z
M 9.8125 72.90625 
L 30.078125 72.90625 
Q 51.265625 72.90625 61.171875 64.09375 
Q 71.09375 55.28125 71.09375 36.53125 
Q 71.09375 17.671875 61.125 8.828125 
Q 51.171875 0 30.078125 0 
L 9.8125 0 
z
" id="DejaVuSans-68"/>
      </defs>
      <use xlink:href="#DejaVuSans-69"/>
      <use x="63.183594" xlink:href="#DejaVuSans-120"/>
      <use x="122.363281" xlink:href="#DejaVuSans-112"/>
      <use x="185.839844" xlink:href="#DejaVuSans-101"/>
      <use x="247.363281" xlink:href="#DejaVuSans-114"/>
      <use x="288.476562" xlink:href="#DejaVuSans-105"/>
      <use x="316.259766" xlink:href="#DejaVuSans-109"/>
      <use x="413.671875" xlink:href="#DejaVuSans-101"/>
      <use x="475.195312" xlink:href="#DejaVuSans-110"/>
      <use x="538.574219" xlink:href="#DejaVuSans-116"/>
      <use x="577.783203" xlink:href="#DejaVuSans-97"/>
      <use x="639.0625" xlink:href="#DejaVuSans-108"/>
      <use x="666.845703" xlink:href="#DejaVuSans-32"/>
      <use x="698.632812" xlink:href="#DejaVuSans-68"/>
      <use x="775.634766" xlink:href="#DejaVuSans-97"/>
      <use x="836.914062" xlink:href="#DejaVuSans-116"/>
      <use x="876.123047" xlink:href="#DejaVuSans-97"/>
     </g>
    </g>
   </g>
  </g>
 </g>
 <defs>
  <clipPath id="p0b9730a3e1">
   <rect height="460.152" width="533.448" x="86.04" y="71.712"/>
  </clipPath>
 </defs>
</svg>
